# xmcd
#
# Track frame offsets:
#	150
#	14341
#	35568
#	57337
#	74209
#	92354
#	113750
#	136273
#	153954
#	174256
#	193876
#	209738
#	222075
#	237879
#	256625
#	274569
#	296012
#	310082
#	327996
#	344755
#
# Disc length: 4772 seconds
#
# Revision: 1
# Processed by: cddbd v1.5.2PL0 Copyright (c) Steve Scherf et al.
# Submitted via: audiograbber 1.83.01
#
DISCID=2d12a214
DTITLE=Las 101 grandes canciones de Amor - Las 101 grandes canciones de Amor - 
DTITLE=Cd5
DYEAR=2000
DGENRE=Pop
TTITLE0=Luis Miguel - Somos Novios
TTITLE1=Shakira - No
TTITLE2=Manà - Vivir sin Aire
TTITLE3=Joan Manuel Serrat - La mujer que yo Quiero
TTITLE4=Joaquin Sabina - Princesa
TTITLE5=Alejandro Sanz - Amiga Mia
TTITLE6=Mecano - El 7 de Septiembre
TTITLE7=Luis Miguel - El dia que me Quieras
TTITLE8=Alex Ubago - A gritos de Esperanza
TTITLE9=Triana - Tu Frialdad
TTITLE10=Antonio Flores - Cuerpo de Mujer
TTITLE11=Rocio Jurado - Como yo te Amo
TTITLE12=Bambino - Voy a perder la cabeza por tu Amor
TTITLE13=Cecilia - Un ramito de Violetas
TTITLE14=Kiko Veneno - Echo de Menos
TTITLE15=Malu - Aprendiz
TTITLE16=Manzanita - Por tu Ausencia
TTITLE17=Umberto Tozzi - Te Amo
TTITLE18=Marisol - Hablame del mar Marinero
TTITLE19=Albert Hammond - Echame a mí la Culpa
EXTD=crg
EXTT0=
EXTT1=
EXTT2=
EXTT3=
EXTT4=
EXTT5=
EXTT6=
EXTT7=
EXTT8=
EXTT9=
EXTT10=
EXTT11=
EXTT12=
EXTT13=
EXTT14=
EXTT15=
EXTT16=
EXTT17=
EXTT18=
EXTT19=
PLAYORDER=
